:FULLY-SPECIFIED
:FORCE-ALL-JOINTS-BE-3DOF
:DEGREES
306
root 9.0832 15.6042 -23.4877 16.4245 64.168 20.7158
lfemur -14.1647 13.6832 -18.8844
ltibia 48.0493 -0 0
lfoot -15.7391 -11.9804 -0.586187
ltoes 23.0871 -0 0
rfemur -44.6798 -3.80255 11.4349
rtibia 54.4571 -0 0
rfoot 8.62051 -18.2406 0.00236687
rtoes 40.2108 -0 0
lowerback 6.61647 -3.89728 -5.13154
upperback 4.28145 -5.32761 -2.93732
thorax 0.945677 -2.67534 0.129843
lowerneck -2.89866 -12.3189 -3.13712
upperneck -0.443437 -16.3877 7.24886
head 1.32612 -8.1758 2.39084
lclavicle -7.50585e-15 1.76195e-14 4.66754e-32
lhumerus -45.4903 -45.7484 107.887
lradius 60.1342 -0 0
lwrist 15.4039 0 0
lhand 15.8324 13.5594 0.000143369
lfingers 7.12502 -0 0
lthumb 40.6322 38.5721 -0.00635927
rclavicle -7.50585e-15 1.76195e-14 4.66754e-32
rhumerus -44.1985 19.8842 -84.9465
rradius 74.7774 -0 0
rwrist 7.48467 0 0
rhand -33.808 -16.0482 0.55295
rfingers 7.12502 -0 0
rthumb -6.99203 -45.8435 0.524116
307
root 9.05312 15.6156 -23.4098 15.5744 62.7117 19.5424
lfemur -14.0762 14.2703 -18.6008
ltibia 47.6358 -0 0
lfoot -15.9462 -10.1933 -0.599196
ltoes 20.3586 -0 0
rfemur -44.8874 -4.0281 10.6562
rtibia 54.5078 -0 0
rfoot 8.64997 -18.1906 0.00241859
rtoes 40.0159 -0 0
lowerback 6.5497 -3.73328 -5.03761
upperback 4.24625 -5.10667 -2.84731
thorax 0.936927 -2.56576 0.157678
lowerneck -2.95366 -12.2946 -2.84831
upperneck -0.764685 -16.3436 7.24652
head 1.20369 -8.15965 2.35685
lclavicle -8.51413e-15 1.76483e-14 4.76954e-32
lhumerus -45.7657 -46.0974 108.26
lradius 60.1156 -0 0
lwrist 15.3516 0 0
lhand 15.7105 13.5587 0.000146503
lfingers 7.12502 -0 0
lthumb 40.5176 38.6066 -0.00649825
rclavicle -8.51413e-15 1.76483e-14 4.76954e-32
rhumerus -41.9711 19.9713 -83.2555
rradius 75.1543 -0 0
rwrist 6.73091 0 0
rhand -34.2155 -16.896 0.565084
rfingers 7.12502 -0 0
rthumb -7.38515 -46.6763 0.535615
308
root 9.02281 15.627 -23.3315 14.8211 61.2376 18.4615
lfemur -13.9838 14.8613 -18.3134
ltibia 47.2194 -0 0
lfoot -16.155 -8.39316 -0.605767
ltoes 17.6104 -0 0
rfemur -45.0934 -4.2581 9.8724
rtibia 54.5588 -0 0
rfoot 8.67964 -18.1402 0.0024447
rtoes 39.8197 -0 0
lowerback 6.48273 -3.56799 -4.94321
upperback 4.21117 -4.88409 -2.75682
thorax 0.928169 -2.45539 0.185694
lowerneck -3.00893 -12.2698 -2.55748
upperneck -1.08818 -16.2992 7.2439
head 1.08036 -8.14345 2.32257
lclavicle -9.52967e-15 1.76773e-14 4.82102e-32
lhumerus -46.0482 -46.4477 108.641
lradius 60.0968 -0 0
lwrist 15.2988 0 0
lhand 15.5877 13.558 0.000148084
lfingers 7.12502 -0 0
lthumb 40.4021 38.6414 -0.00656841
rclavicle -9.52967e-15 1.76773e-14 4.82102e-32
rhumerus -39.7251 19.9964 -81.5493
rradius 75.5339 -0 0
rwrist 5.97171 0 0
rhand -34.626 -17.75 0.57121
rfingers 7.12502 -0 0
rthumb -7.78122 -47.5151 0.541421
309
root 8.99243 15.6384 -23.2529 14.1552 59.7539 17.465
lfemur -13.8879 15.4532 -18.0236
ltibia 46.802 -0 0
lfoot -16.3644 -6.58874 -0.605767
ltoes 14.8556 -0 0
rfemur -45.2968 -4.49145 9.08737
rtibia 54.6099 -0 0
rfoot 8.70938 -18.0898 0.0024447
rtoes 39.623 -0 0
lowerback 6.41589 -3.4022 -4.8488
upperback 4.17636 -4.66091 -2.66628
thorax 0.919445 -2.34475 0.213758
lowerneck -3.06419 -12.2447 -2.266
upperneck -1.41237 -16.2546 7.24102
head 0.956737 -8.12729 2.28818
lclavicle -1.05476e-14 1.77064e-14 4.82102e-32
lhumerus -46.3367 -46.7975 109.028
lradius 60.078 -0 0
lwrist 15.246 0 0
lhand 15.4646 13.5572 0.000148084
lfingers 7.12502 -0 0
lthumb 40.2864 38.6762 -0.00656841
rclavicle -1.05476e-14 1.77064e-14 4.82102e-32
rhumerus -37.4739 19.9586 -79.8394
rradius 75.9144 -0 0
rwrist 5.21071 0 0
rhand -35.0375 -18.606 0.57121
rfingers 7.12502 -0 0
rthumb -8.17828 -48.3559 0.541421
310
root 8.96213 15.6499 -23.1745 13.5679 58.2684 16.5456
lfemur -13.7888 16.0432 -17.7326
ltibia 46.3856 -0 0
lfoot -16.5732 -4.78864 -0.599196
ltoes 12.1074 -0 0
rfemur -45.4966 -4.72699 8.30478
rtibia 54.6609 -0 0
rfoot 8.73905 -18.0394 0.00241859
rtoes 39.4268 -0 0
lowerback 6.34949 -3.23669 -4.75482
upperback 4.14201 -4.43822 -2.57612
thorax 0.910796 -2.23436 0.241736
lowerneck -3.11919 -12.2193 -1.97526
upperneck -1.73573 -16.2102 7.23788
head 0.833403 -8.11124 2.25384
lclavicle -1.15632e-14 1.77354e-14 4.76954e-32
lhumerus -46.6297 -47.1451 109.418
lradius 60.0592 -0 0
lwrist 15.1932 0 0
lhand 15.3418 13.5565 0.000146503
lfingers 7.12502 -0 0
lthumb 40.1709 38.711 -0.00649825
rclavicle -1.15632e-14 1.77354e-14 4.76954e-32
rhumerus -35.2313 19.8579 -78.1371
rradius 76.294 -0 0
rwrist 4.45151 0 0
rhand -35.448 -19.46 0.565084
rfingers 7.12502 -0 0
rthumb -8.57435 -49.1947 0.535615
311
root 8.93205 15.6612 -23.0967 13.0511 56.7891 15.6967
lfemur -13.687 16.6285 -17.4418
ltibia 45.9721 -0 0
lfoot -16.7803 -3.00146 -0.586187
ltoes 9.37891 -0 0
rfemur -45.6918 -4.96351 7.52833
rtibia 54.7116 -0 0
rfoot 8.76851 -17.9894 0.00236687
rtoes 39.2319 -0 0
lowerback 6.28384 -3.07225 -4.66172
upperback 4.10825 -4.21707 -2.48676
thorax 0.902263 -2.12477 0.269495
lowerneck -3.17365 -12.1939 -1.68666
upperneck -2.05669 -16.1662 7.2345
head 0.710946 -8.09538 2.21971
lclavicle -1.25714e-14 1.77642e-14 4.66754e-32
lhumerus -46.9261 -47.4888 109.812
lradius 60.0406 -0 0
lwrist 15.1409 0 0
lhand 15.2199 13.5558 0.000143369
lfingers 7.12502 -0 0
lthumb 40.0563 38.7455 -0.00635927
rclavicle -1.25714e-14 1.77642e-14 4.66754e-32
rhumerus -33.0107 19.6962 -76.4539
rradius 76.6709 -0 0
rwrist 3.69775 0 0
rhand -35.8555 -20.3078 0.55295
rfingers 7.12502 -0 0
rthumb -8.96747 -50.0275 0.524116
312
root 8.90232 15.6724 -23.0198 12.5976 55.3238 14.9125
lfemur -13.5831 17.2063 -17.1525
ltibia 45.5637 -0 0
lfoot -16.9843 -1.23581 -0.567
ltoes 6.68317 -0 0
rfemur -45.8815 -5.19975 6.76174
rtibia 54.7616 -0 0
rfoot 8.79762 -17.94 0.00229052
rtoes 39.0395 -0 0
lowerback 6.21926 -2.90969 -4.56994
upperback 4.07525 -3.99852 -2.39863
thorax 0.893885 -2.01648 0.296903
lowerneck -3.22733 -12.1685 -1.40158
upperneck -2.3737 -16.1226 7.23092
head 0.589957 -8.07978 2.18596
lclavicle -1.35676e-14 1.77927e-14 4.51699e-32
lhumerus -47.2242 -47.8271 110.205
lradius 60.0221 -0 0
lwrist 15.0891 0 0
lhand 15.0995 13.555 0.000138744
lfingers 7.12502 -0 0
lthumb 39.943 38.7796 -0.00615413
rclavicle -1.35676e-14 1.77927e-14 4.51699e-32
rhumerus -30.8253 19.4764 -74.8006
rradius 77.0433 -0 0
rwrist 2.95304 0 0
rhand -36.2578 -21.1453 0.535043
rfingers 7.12502 -0 0
rthumb -9.35565 -50.8501 0.507146
313
root 8.87311 15.6834 -22.9442 12.2006 53.8804 14.1879
lfemur -13.4776 17.7737 -16.8661
ltibia 45.1622 -0 0
lfoot -17.1842 0.49969 -0.542022
ltoes 4.03332 -0 0
rfemur -46.065 -5.43442 6.00868
rtibia 54.8108 -0 0
rfoot 8.82622 -17.8915 0.00219102
rtoes 38.8503 -0 0
lowerback 6.15604 -2.7498 -4.47991
upperback 4.04315 -3.78364 -2.31215
thorax 0.885701 -1.91004 0.323827
lowerneck -3.27996 -12.1433 -1.12141
upperneck -2.68527 -16.0799 7.22715
head 0.471024 -8.06452 2.15275
lclavicle -1.45468e-14 1.78206e-14 4.32078e-32
lhumerus -47.5226 -48.1582 110.597
lradius 60.004 -0 0
lwrist 15.0383 0 0
lhand 14.9811 13.5543 0.000132717
lfingers 7.12502 -0 0
lthumb 39.8317 38.8132 -0.00588676
rclavicle -1.45468e-14 1.78206e-14 4.32078e-32
rhumerus -28.6877 19.2027 -73.1878
rradius 77.4093 -0 0
rwrist 2.22102 0 0
rhand -36.653 -21.9684 0.511712
rfingers 7.12502 -0 0
rthumb -9.73695 -51.6587 0.485035
